<?xml version="1.0" encoding="utf-8"?>
<!-- Generator: Adobe Illustrator 16.0.3, SVG Export Plug-In . SVG Version: 6.00 Build 0)  -->
<!DOCTYPE svg PUBLIC "-//W3C//DTD SVG 1.1//EN" "http://www.w3.org/Graphics/SVG/1.1/DTD/svg11.dtd">
<svg version="1.1" id="Capa_1" xmlns="http://www.w3.org/2000/svg" xmlns:xlink="http://www.w3.org/1999/xlink" x="0px" y="0px"
	 width="500px" height="500px" viewBox="0 0 500 500" enable-background="new 0 0 500 500" xml:space="preserve">
<g>
	<path fill="#FFFFFF" d="M219.041,205.529h-22.758h-89.412v37.955H107v-37.919h89.42h22.752H262.5c8.867,0,15.953,0.594,21.5,1.815
		c-5.564-1.243-12.691-1.852-21.633-1.852H219.041z"/>
	<path fill="#FFFFFF" d="M116.543,258.094v-14.573h-0.133v14.538c0,6.667,2.436,16.317,13.945,24.347
		c5.408,3.845,11.93,6.5,19.486,7.947c-7.496-1.455-13.973-4.102-19.35-7.918C118.979,274.405,116.543,264.761,116.543,258.094z"/>
	<path fill="#FFFFFF" d="M196.713,282.573v8.763h0.133v-8.858C196.803,282.511,196.756,282.541,196.713,282.573z"/>
	<path fill="#FFFFFF" d="M286.285,262.815c-0.043,0.014-0.076,0.025-0.113,0.04c3.375,10.125,11.436,21.228,30.031,26.138
		C297.66,284.054,289.635,272.939,286.285,262.815z"/>
	<path fill="#FFFFFF" d="M350.299,291.006l15.691,14.168l0.059-0.039l-15.656-14.138
		C350.361,291.001,350.328,291.003,350.299,291.006z"/>
	<path fill="#FFFFFF" d="M302.023,214.885c9.553-6.379,21.834-9.651,36.484-9.651c6.379,0,12.313,0.617,17.773,1.84
		c-5.498-1.242-11.477-1.868-17.908-1.868c-14.648,0-26.934,3.265-36.48,9.651c-0.441,0.289-0.826,0.617-1.24,0.916
		c0.023,0.023,0.053,0.046,0.076,0.07C301.168,215.533,301.564,215.188,302.023,214.885z"/>
	<path fill="#FFFFFF" d="M219.172,205.565H196.42H107v37.919h9.41v0.036h0.133v14.573c0,6.667,2.436,16.312,13.949,24.341
		c5.377,3.816,11.854,6.463,19.35,7.918c4.512,0.865,9.393,1.3,14.627,1.3c13.428,0,24.223-3.085,32.244-9.204v0.125
		c0.043-0.032,0.09-0.063,0.133-0.096v8.858h72.848v-25.529c6.396-0.569,11.719-1.535,16.109-2.897
		c0.125-0.036,0.223-0.08,0.346-0.123c0.008,0.023,0.016,0.047,0.023,0.069c0.037-0.015,0.07-0.026,0.113-0.04
		c3.35,10.124,11.375,21.238,29.918,26.178c6.18,1.632,13.521,2.58,22.242,2.58c4.178,0,8.119-0.202,11.811-0.605l0.043,0.038
		c0.029-0.003,0.063-0.005,0.094-0.009l15.656,14.138l39.926-26.521l-16.398-12.52c2.012-4.765,3.369-10.617,3.369-17.745
		c0-14.12-6.223-25.71-17.949-33.458c-5.406-3.612-11.664-6.224-18.715-7.818c-5.461-1.223-11.395-1.84-17.773-1.84
		c-14.65,0-26.932,3.272-36.484,9.651c-0.459,0.303-0.855,0.648-1.295,0.958c-0.023-0.024-0.053-0.047-0.076-0.07
		c-0.02,0.014-0.037,0.028-0.057,0.042c-3.377-3.286-7.738-5.853-13.047-7.489c-1.104-0.348-2.287-0.662-3.549-0.944
		c-5.547-1.222-12.633-1.815-21.5-1.815H219.172z M285.305,216.376c7.168,2.199,11.961,6.4,13.994,12.088
		c2.031-2.422,4.461-4.635,7.365-6.552c8.203-5.492,18.963-8.281,31.934-8.281c13.027,0,23.803,2.789,32.049,8.296
		c9.467,6.248,14.295,15.208,14.295,26.596c0,7.957-1.938,14.653-5.758,20.008l12.826,9.788l-25.012,16.621l-13.824-12.477
		c-4.346,0.699-9.211,1.06-14.494,1.06c-36.408,0-45.447-17.212-46.254-32.621c-2.293,1.672-5.193,3.149-8.881,4.324
		c-6.854,2.134-16.648,3.171-29.953,3.171h-4.184v2.098h12.273v22.762h-56.496v-22.762h10.861v-24.802h-11.291v-0.28h-3.639v22.819
		c0,6.832-2.855,12.678-8.502,17.37c-6.533,5.312-15.906,7.979-27.922,7.979c-12.246,0-22.113-2.595-29.332-7.727
		c-6.938-4.844-10.479-10.782-10.479-17.622v-22.819h-9.543v-21.45h49.346v21.45h-9.906v20.628c0,1.354,0,4.533,10.051,4.533
		c6.48,0,8.516-0.663,8.998-0.857c0.689-0.281,1.705-0.714,1.705-3.763v-20.541h-9.539v-21.45h38.762h6.264h51.57
		C272.721,213.962,280.148,214.741,285.305,216.376z"/>
	<path fill="#FFFFFF" d="M265.906,238.504c0.914-0.454,0.512-2.249,0.492-2.328c-0.064,0-0.262-0.599-0.631-0.692
		c-0.205-0.043-1.701-0.303-7.895-0.303h-8.465v3.9h4.645C262.453,239.081,264.994,238.966,265.906,238.504z"/>
	<path fill="#FFFFFF" d="M328.088,257.684c0.523,0.418,1.078,0.8,1.676,1.146l16.893-15.086l7.42,5.645
		c0-0.281,0.006-0.57,0.006-0.865c0-4.008-0.896-6.17-3.494-8.238c-2.725-2.205-6.242-3.287-11.24-3.287
		c-5.164,0-9.172,1.319-11.756,3.381c-1.646,1.275-3.488,3.2-3.488,8.765C324.104,253.633,325.293,255.492,328.088,257.684z"/>
	<path fill="#FFFFFF" d="M171.486,230.641h9.547v26.033c0,4.477-1.688,7.424-5.07,8.83c-2.02,0.857-5.727,1.275-11.141,1.275
		c-10.354,0-15.543-3.33-15.543-10.019v-26.12h9.906v-10.466h-38.348v10.466h9.537v28.312c0,4.959,2.73,9.348,8.17,13.146
		c6.295,4.476,15.012,6.71,26.148,6.71c10.764,0,18.904-2.234,24.408-6.71c4.35-3.618,6.52-7.993,6.52-13.146v-28.312h9.91v-10.466
		h-34.045V230.641z"/>
	<path fill="#FFFFFF" d="M210.252,230.915h11.287v35.807h-10.854v11.763h45.5v-11.763h-12.273v-13.097h9.68
		c12.635,0,22.055-0.966,28.297-2.926c8.707-2.746,13.053-7.698,13.053-14.833c0-6.703-3.756-11.215-11.283-13.529
		c-4.57-1.441-11.586-2.162-21.068-2.162h-5.1h-5.104h-42.135V230.915z M243.912,230.915h13.961c4.938,0,8.029,0.158,9.254,0.461
		c3.193,0.828,4.801,2.803,4.801,5.945c0,2.639-1.057,4.361-3.16,5.183c-2.117,0.808-7.014,1.218-14.715,1.218h-10.141V230.915z"/>
	<path fill="#FFFFFF" d="M338.68,278.736c6.094,0,11.482-0.482,16.174-1.441l12.664,11.424l15.021-9.982l-11.428-8.721
		c5.545-4.858,8.328-11.777,8.328-20.772c0-9.463-3.961-16.815-11.85-22.033c-7.348-4.901-17.018-7.359-28.992-7.359
		c-11.914,0-21.564,2.458-28.906,7.359c-7.902,5.218-11.846,12.57-11.846,22.033C297.846,268.913,311.449,278.736,338.68,278.736z
		 M323.566,235.852c3.596-2.868,8.639-4.317,15.113-4.317c6.311,0,11.328,1.506,15.025,4.49c3.92,3.121,5.881,7.525,5.881,13.219
		c0,4.021-0.789,7.402-2.371,10.17l-10.289-7.827l-10.371,9.254l7.361,6.566c-1.639,0.303-3.412,0.454-5.318,0.454
		c-6.043,0-10.912-1.499-14.621-4.497c-4.141-3.236-6.201-7.943-6.201-14.12C317.775,243.312,319.703,238.843,323.566,235.852z"/>
	<path fill="#FFFFFF" d="M20.744,242.714c-0.027,0.884-0.051,1.768-0.068,2.653C20.695,244.481,20.715,243.596,20.744,242.714
		L20.744,242.714z"/>
	<path fill="#FFFFFF" d="M479.371,245.591c-0.02-0.96-0.041-1.919-0.072-2.877h-0.002
		C479.326,243.67,479.35,244.631,479.371,245.591z"/>
	<path fill="#FFFFFF" d="M345.02,109.167c0.424,0.287,0.842,0.585,1.264,0.875c-0.406-0.278-0.807-0.563-1.213-0.842
		C345.053,109.188,345.037,109.178,345.02,109.167z"/>
	<path fill="#FFFFFF" d="M355.215,116.628c0.053,0.041,0.105,0.085,0.158,0.127c-0.033-0.027-0.066-0.053-0.098-0.08
		C355.256,116.659,355.234,116.644,355.215,116.628z"/>
	<path fill="#FFFFFF" d="M341.734,107.004c0.418,0.269,0.83,0.547,1.244,0.819c-0.404-0.266-0.807-0.536-1.213-0.8
		C341.756,107.017,341.746,107.011,341.734,107.004z"/>
	<path fill="#FFFFFF" d="M239.645,80.464c0.436-0.025,0.867-0.06,1.301-0.082C240.512,80.404,240.08,80.438,239.645,80.464z"/>
	<path fill="#FFFFFF" d="M339.527,105.621c0.553,0.344,1.109,0.685,1.656,1.034c-0.025-0.017-0.053-0.033-0.078-0.05
		C340.58,106.274,340.053,105.948,339.527,105.621z"/>
	<path fill="#FFFFFF" d="M244.248,80.248c0.412-0.014,0.822-0.036,1.234-0.047C245.07,80.212,244.66,80.234,244.248,80.248z"/>
	<path fill="#FFFFFF" d="M333.23,101.895c-0.131-0.074-0.26-0.15-0.393-0.224c-0.17-0.096-0.346-0.191-0.52-0.291
		c-0.066-0.036-0.133-0.07-0.199-0.107C332.49,101.479,332.861,101.686,333.23,101.895z"/>
	<path fill="#FFFFFF" d="M226.486,81.77c0.295-0.041,0.59-0.084,0.887-0.124C227.076,81.686,226.781,81.729,226.486,81.77z"/>
	<path fill="#FFFFFF" d="M80.156,250c0-10.258,0.908-20.304,2.65-30.061C81.063,229.7,80.156,239.739,80.156,250z"/>
	<path fill="#FFFFFF" d="M222.146,82.429c0.244-0.04,0.488-0.082,0.732-0.121C222.635,82.347,222.391,82.389,222.146,82.429z"/>
	<path fill="#FFFFFF" d="M217.811,83.202c0.203-0.039,0.404-0.078,0.607-0.116C218.215,83.124,218.014,83.163,217.811,83.202z"/>
	<path fill="#FFFFFF" d="M230.836,81.225c0.35-0.04,0.699-0.083,1.051-0.12C231.535,81.142,231.186,81.185,230.836,81.225z"/>
	<path fill="#FFFFFF" d="M235.211,80.789c0.4-0.034,0.801-0.074,1.203-0.106C236.012,80.715,235.611,80.755,235.211,80.789z"/>
	<path fill="#FFFFFF" d="M214.01,83.978c-0.051,0.011-0.104,0.02-0.154,0.031c-0.061,0.014-0.119,0.027-0.18,0.041
		C213.787,84.025,213.898,84.001,214.01,83.978z"/>
	<path fill="#FFFFFF" d="M83.592,215.843c0,0.003-0.002,0.007-0.002,0.011c-0.16,0.783-0.303,1.573-0.451,2.361
		C83.287,217.423,83.432,216.63,83.592,215.843z"/>
	<path fill="#FFFFFF" d="M317.818,428.914c0.098,0.555,0.188,1.045,0.256,1.492c0.072,0.439,0.107,0.742,0.115,0.9l0.234,5.752
		l4.428-1.694l-3.766-4.476c-0.107-0.137-0.277-0.375-0.496-0.714C318.369,429.836,318.105,429.418,317.818,428.914z"/>
	<path fill="#FFFFFF" d="M418.039,348.478c-0.717-0.447-1.357-0.541-1.928-0.289c-0.57,0.245-1.225,0.966-1.965,2.17l-0.287,0.469
		l3.826,2.364l0.289-0.462c0.777-1.269,1.15-2.184,1.121-2.753C419.07,349.399,418.721,348.902,418.039,348.478z"/>
	<path fill="#FFFFFF" d="M112.561,385.928c0.012-1.239-0.648-2.552-1.988-3.921l-1.42-1.456l-7.811,7.626l1.424,1.456
		c1.34,1.362,2.627,2.061,3.863,2.083c1.232,0.014,2.525-0.635,3.881-1.961C111.861,388.443,112.539,387.16,112.561,385.928z"/>
	<path fill="#FFFFFF" d="M389.609,395.976c0.021-0.757-0.109-1.5-0.396-2.242c-0.285-0.735-0.691-1.391-1.215-1.968
		c-1.092-1.196-2.385-1.866-3.881-2.004c-1.492-0.137-2.801,0.296-3.926,1.327c-1.145,1.03-1.725,2.299-1.732,3.805
		c-0.012,1.492,0.533,2.848,1.625,4.051c1.104,1.211,2.387,1.889,3.85,2.019s2.768-0.317,3.906-1.348
		c0.098-0.087,0.223-0.224,0.379-0.404c0.158-0.18,0.334-0.396,0.539-0.648l-3.711-0.454l2.635-2.393L389.609,395.976z"/>
	<path fill="#FFFFFF" d="M83.393,353.271c0.518,0.224,1.127,0.137,1.805-0.281c0.721-0.447,1.092-0.98,1.125-1.601
		c0.035-0.619-0.322-1.527-1.064-2.724l-0.283-0.469l-3.828,2.364l0.291,0.476C82.213,352.283,82.865,353.04,83.393,353.271z"/>
	<path fill="#FFFFFF" d="M162.729,420.085l-0.465-0.245L160,424.33l0.473,0.237c0.887,0.454,1.629,0.591,2.217,0.433
		c0.588-0.173,1.088-0.663,1.496-1.478c0.381-0.75,0.461-1.405,0.227-1.946C164.182,421.028,163.623,420.524,162.729,420.085z"/>
	<path fill="#FFFFFF" d="M180.041,427.984c-1.438-0.563-2.832-0.52-4.188,0.137s-2.316,1.744-2.914,3.258
		c-0.604,1.535-0.625,2.983-0.084,4.367c0.545,1.362,1.553,2.336,3.027,2.912c1.441,0.563,2.828,0.52,4.162-0.122
		c1.342-0.642,2.297-1.737,2.895-3.258c0.588-1.507,0.609-2.963,0.061-4.36C182.449,429.512,181.469,428.539,180.041,427.984z"/>
	<path fill="#FFFFFF" d="M123.395,396.833l-4.932,2.983l3.629,3.063l2.098-5.463c0.063-0.159,0.195-0.418,0.379-0.778
		c0.199-0.354,0.436-0.786,0.734-1.283c-0.428,0.346-0.824,0.67-1.182,0.944C123.768,396.573,123.523,396.754,123.395,396.833z"/>
	<path fill="#FFFFFF" d="M139.211,406.477l-1.676-1.146l-6.182,8.973l1.674,1.161c1.578,1.081,2.977,1.514,4.193,1.297
		c1.219-0.224,2.361-1.117,3.432-2.674s1.488-2.94,1.262-4.159C141.689,408.711,140.785,407.558,139.211,406.477z"/>
	<path fill="#FFFFFF" d="M346.725,417.281c-1.189-0.354-2.627-0.072-4.303,0.85l-1.785,0.988l5.254,9.557l1.781-0.98
		c1.68-0.915,2.695-1.975,3.037-3.156c0.35-1.189,0.068-2.609-0.842-4.268C348.961,418.621,347.914,417.619,346.725,417.281z"/>
	<path fill="#FFFFFF" d="M436.043,309.232l4.609,3.467l1.479-4.52l-5.85,0.108c-0.172,0-0.457-0.022-0.865-0.072
		c-0.402-0.043-0.889-0.108-1.467-0.194c0.49,0.273,0.938,0.512,1.324,0.749C435.658,308.987,435.918,309.146,436.043,309.232z"/>
	<path fill="#FFFFFF" d="M441.508,289.267c-0.822-0.188-1.463-0.086-1.918,0.339c-0.469,0.418-0.854,1.313-1.168,2.688l-0.125,0.526
		l4.381,1.017l0.123-0.534c0.332-1.441,0.4-2.429,0.188-2.962C442.779,289.801,442.289,289.447,441.508,289.267z"/>
	<path fill="#FFFFFF" d="M448.484,267.846c-1.604-0.201-3.02,0.123-4.252,0.987c-1.227,0.872-1.936,2.062-2.135,3.583
		c-0.197,1.535,0.182,2.883,1.146,4.021c0.959,1.168,2.246,1.838,3.863,2.054c1.637,0.209,3.053-0.115,4.252-0.966
		c1.201-0.864,1.9-2.075,2.105-3.646c0.193-1.535-0.178-2.869-1.125-4.015C451.389,268.732,450.105,268.055,448.484,267.846z"/>
	<path fill="#FFFFFF" d="M479.371,245.591c-0.021-0.96-0.045-1.921-0.074-2.877h-57.311c0.102,2.417,0.164,4.844,0.164,7.286
		c0,94.643-77.076,171.354-172.152,171.354c-95.074,0-172.145-76.711-172.145-171.354c0-2.442,0.064-4.869,0.166-7.286H20.744
		c-0.029,0.882-0.049,1.768-0.068,2.653c-0.031,1.542-0.059,3.084-0.059,4.633c0,126.702,102.707,229.41,229.402,229.41
		S479.426,376.702,479.426,250C479.426,248.526,479.398,247.059,479.371,245.591z M235.641,431.876l3.006,0.245l-4.004,4
		l-1.654-0.144L235.641,431.876z M43.941,275.407c-0.332-2.473-0.012-4.397,0.959-5.76c0.973-1.361,2.605-2.198,4.9-2.508
		l10.545-1.427l0.49,3.604l-9.979,1.348c-1.398,0.188-2.404,0.635-3.031,1.341c-0.621,0.714-0.848,1.687-0.682,2.912
		c0.162,1.239,0.643,2.126,1.434,2.659c0.805,0.533,1.896,0.714,3.283,0.526l9.98-1.341l0.482,3.597l-10.549,1.42
		c-2.295,0.303-4.094-0.072-5.395-1.132C45.084,279.602,44.275,277.851,43.941,275.407z M49.617,301.549l7.982-9.982
		c0.223-0.274,0.547-0.591,0.986-0.966c0.434-0.375,0.959-0.786,1.58-1.232c-0.459,0.194-0.928,0.382-1.398,0.533
		c-0.48,0.166-1.092,0.331-1.836,0.512l-9.48,2.335l-0.836-3.388l16.605-4.087l0.912,3.684l-7.855,9.723
		c-0.221,0.281-0.549,0.605-0.98,0.988c-0.434,0.374-0.959,0.778-1.557,1.21c0.465-0.201,0.936-0.382,1.416-0.533
		c0.473-0.158,1.074-0.324,1.801-0.504l9.287-2.292l0.83,3.395l-16.6,4.087L49.617,301.549z M52.547,311.301l16.225-5.377
		l1.152,3.474l-16.227,5.377L52.547,311.301z M57.43,324.872l13.441-12.317l1.525,3.74l-8.609,7.114
		c-0.18,0.145-0.52,0.39-1.014,0.728c-0.5,0.354-1.066,0.735-1.715,1.161c0.721-0.181,1.363-0.324,1.939-0.433
		c0.563-0.101,1.045-0.166,1.428-0.202l11.037-0.864l1.51,3.697l-18.234,0.576L57.43,324.872z M67.773,347.071l-4.582-8.966
		l15.227-7.777l4.58,8.967l-2.746,1.398l-2.918-5.709l-3.129,1.593l2.912,5.716l-2.764,1.413l-2.92-5.709l-3.816,1.946l2.92,5.716
		L67.773,347.071z M75.164,359.548l4.434-8.029l-6.797,4.202l-1.918-3.113l14.541-8.988l2.754,4.454
		c1.092,1.767,1.564,3.302,1.424,4.613c-0.141,1.305-0.902,2.378-2.277,3.229c-1,0.62-2.045,0.837-3.121,0.678
		c-1.086-0.166-1.973-0.685-2.686-1.563l-4.137,8.101L75.164,359.548z M86.182,373.624c-1.416-0.316-2.674-1.225-3.768-2.702
		c-0.777-1.06-1.254-2.091-1.447-3.106c-0.195-1.023-0.08-1.976,0.33-2.848l3.057,0.274c-0.354,0.584-0.512,1.211-0.465,1.874
		c0.047,0.678,0.277,1.297,0.699,1.866c0.504,0.692,1.074,1.125,1.693,1.276c0.625,0.165,1.205,0.043,1.76-0.36
		c0.652-0.49,0.811-1.629,0.475-3.438c-0.115-0.591-0.191-1.052-0.244-1.398c-0.268-1.665-0.268-2.955-0.004-3.863
		c0.256-0.9,0.801-1.657,1.625-2.271c1.133-0.828,2.396-1.066,3.791-0.713c1.395,0.375,2.617,1.261,3.676,2.703
		c0.613,0.836,0.996,1.657,1.154,2.479c0.154,0.822,0.086,1.694-0.191,2.617l-2.947-0.512c0.252-0.512,0.346-1.002,0.291-1.485
		c-0.055-0.49-0.256-0.973-0.609-1.463c-0.432-0.577-0.926-0.938-1.48-1.089c-0.551-0.144-1.061-0.043-1.531,0.296
		c-0.721,0.541-0.865,1.744-0.422,3.604c0.086,0.36,0.15,0.649,0.197,0.851c0.322,1.564,0.357,2.869,0.098,3.929
		c-0.26,1.052-0.814,1.896-1.672,2.522C88.949,373.624,87.598,373.941,86.182,373.624z M89.932,379.859l13.102-10.984l2.35,2.796
		l-13.102,10.992L89.932,379.859z M105.912,395.01c-0.945-0.174-1.834-0.505-2.678-1.017s-1.906-1.42-3.193-2.746l-0.9-0.915
		l-2.555-2.624l12.238-11.943l3.25,3.345c1.283,1.312,2.205,2.437,2.76,3.373c0.559,0.938,0.902,1.903,1.027,2.897
		c0.18,1.276,0.029,2.516-0.436,3.712c-0.473,1.204-1.232,2.328-2.303,3.366c-1.082,1.06-2.238,1.809-3.457,2.234
		C108.445,395.125,107.191,395.232,105.912,395.01z M119.609,409.295l1.275-3.676l-5.055-4.274l-3.256,2.011l-2.998-2.529
		l15.998-8.873l3.197,2.696l-5.982,17.326L119.609,409.295z M145.348,412.48c-0.227,1.269-0.764,2.522-1.613,3.755
		c-0.859,1.247-1.842,2.206-2.955,2.869c-1.115,0.648-2.322,0.994-3.619,1.03c-0.959,0.015-1.898-0.144-2.828-0.482
		c-0.924-0.339-2.145-1.023-3.658-2.069l-1.066-0.728l-3.014-2.076l9.688-14.091l3.838,2.646c1.518,1.038,2.637,1.968,3.365,2.782
		c0.729,0.808,1.248,1.687,1.572,2.631C145.475,409.973,145.568,411.219,145.348,412.48z M167.449,425.332
		c-0.746,1.478-1.813,2.393-3.203,2.753c-1.383,0.354-2.926,0.101-4.631-0.757l-0.895-0.454l-2.943,5.831l-3.287-1.65l7.701-15.273
		l3.752,1.889c2.004,1.017,3.291,2.141,3.863,3.381C168.377,422.305,168.262,423.731,167.449,425.332z M186.441,436.647
		c-0.439,1.139-1.074,2.134-1.898,2.984c-0.818,0.851-1.777,1.499-2.877,1.968c-1.135,0.461-2.303,0.706-3.502,0.721
		c-1.199,0.014-2.357-0.195-3.471-0.628c-0.969-0.382-1.859-0.915-2.662-1.606c-0.801-0.692-1.467-1.5-2.004-2.422
		c-0.693-1.189-1.09-2.443-1.186-3.763c-0.102-1.319,0.096-2.616,0.598-3.892c0.443-1.14,1.07-2.134,1.885-2.978
		c0.814-0.843,1.777-1.491,2.896-1.953c1.1-0.468,2.26-0.713,3.486-0.728c1.217-0.015,2.393,0.201,3.514,0.627
		c1.105,0.433,2.104,1.074,2.982,1.91c0.885,0.836,1.572,1.795,2.076,2.883c0.494,1.103,0.762,2.234,0.785,3.409
		C187.094,434.355,186.885,435.509,186.441,436.647z M198.188,448.9l-9.125-2.631l4.734-16.44l3.51,1.017l-3.869,13.449l5.607,1.614
		L198.188,448.9z M206.504,450.817l-3.568-0.814l3.773-16.678l3.564,0.807L206.504,450.817z M225.488,439.992l-4.125-0.678
		l-2.234,13.816l-3.627-0.583l2.238-13.811l-4.129-0.67l0.494-3.063l11.881,1.918L225.488,439.992z M239.537,441.246l-6.391-0.526
		l-0.283,3.496l6.389,0.533l-0.26,3.092l-6.393-0.533l-0.35,4.281l6.389,0.526l-0.252,3.099l-10.029-0.836l1.406-17.038
		l10.033,0.836L239.537,441.246z M249.285,451.243c1.016,1.052,2.389,1.571,4.125,1.557c0.992,0,1.906-0.173,2.754-0.512
		c0.848-0.332,1.625-0.836,2.35-1.499v3.748c-0.781,0.461-1.586,0.814-2.439,1.037c-0.854,0.238-1.752,0.354-2.691,0.36
		c-2.732,0.015-4.967-0.828-6.729-2.501c-1.76-1.687-2.645-3.834-2.656-6.436c-0.018-2.603,0.844-4.758,2.592-6.458
		c1.736-1.694,3.996-2.552,6.76-2.581c0.92,0,1.82,0.102,2.686,0.289c0.867,0.194,1.715,0.482,2.564,0.879l-0.111,3.676
		c-0.746-0.663-1.502-1.139-2.285-1.448c-0.781-0.303-1.609-0.447-2.5-0.44c-1.824,0.008-3.271,0.556-4.35,1.658
		c-1.074,1.088-1.607,2.559-1.594,4.396C247.771,448.771,248.279,450.19,249.285,451.243z M277.459,453.736l-8.852-9.218
		c-0.248-0.253-0.529-0.613-0.84-1.104c-0.313-0.476-0.645-1.052-1.012-1.723c0.137,0.483,0.256,0.959,0.35,1.456
		c0.094,0.498,0.184,1.125,0.266,1.889l1.082,9.701l-3.475,0.39l-1.889-17.003l3.773-0.418l8.621,9.06
		c0.252,0.253,0.529,0.62,0.848,1.096c0.316,0.469,0.65,1.045,1.012,1.701c-0.148-0.49-0.268-0.98-0.357-1.471
		c-0.096-0.497-0.184-1.109-0.266-1.852l-1.053-9.515l3.467-0.382l1.893,17.003L277.459,453.736z M287.549,452.101l-3.238-16.786
		l3.586-0.699l3.238,16.793L287.549,452.101z M308.502,447.278c-0.768,0.44-1.6,0.778-2.512,1.023
		c-2.635,0.714-5.014,0.477-7.143-0.706c-2.127-1.182-3.527-3.027-4.205-5.55c-0.682-2.508-0.391-4.814,0.865-6.897
		c1.25-2.083,3.207-3.488,5.881-4.209c0.893-0.245,1.779-0.383,2.666-0.418c0.883-0.029,1.787,0.035,2.703,0.209l0.832,3.574
		c-0.887-0.446-1.748-0.721-2.576-0.821c-0.836-0.094-1.68-0.021-2.533,0.209c-1.762,0.476-3.023,1.384-3.785,2.718
		c-0.76,1.326-0.9,2.883-0.424,4.655c0.465,1.737,1.326,2.991,2.568,3.741c1.24,0.757,2.707,0.915,4.383,0.469
		c0.947-0.26,1.799-0.656,2.529-1.204c0.736-0.54,1.363-1.218,1.889-2.054l0.959,3.632
		C309.961,446.299,309.266,446.839,308.502,447.278z M327.271,440.641l-2.596-2.897l-6.188,2.364l0.188,3.819l-3.666,1.406
		l-0.035-18.301l3.902-1.491l12.279,13.615L327.271,440.641z M353.697,426.11c-0.41,0.864-0.973,1.636-1.697,2.313
		c-0.717,0.67-1.881,1.448-3.488,2.328l-1.139,0.627l-3.205,1.759l-8.227-14.992l4.09-2.241c1.607-0.887,2.934-1.463,3.994-1.752
		c1.049-0.288,2.068-0.353,3.063-0.216c1.279,0.173,2.43,0.656,3.467,1.42c1.031,0.771,1.898,1.816,2.619,3.121
		c0.732,1.333,1.143,2.645,1.23,3.942C354.486,423.703,354.256,424.942,353.697,426.11z M362.26,422.751l-9.543-14.185l8.35-5.621
		l1.727,2.565l-5.318,3.567l1.959,2.927l5.32-3.582l1.732,2.58l-5.322,3.575l2.396,3.553l5.316-3.582l1.736,2.573L362.26,422.751z
		 M416.24,328.649l2.182,5.218l-0.758,1.478l-2.793-4.007L416.24,328.649z M395.076,399.514l-2.854-0.374
		c-0.473,0.721-0.881,1.304-1.23,1.751c-0.342,0.447-0.678,0.814-1.002,1.11c-0.863,0.785-1.869,1.384-3.012,1.802
		s-2.303,0.605-3.471,0.563c-1.199-0.036-2.34-0.317-3.416-0.814c-1.082-0.505-2.021-1.197-2.83-2.083
		c-0.803-0.887-1.4-1.889-1.791-3.006c-0.396-1.103-0.555-2.271-0.482-3.488c0.059-1.189,0.357-2.328,0.879-3.402
		c0.52-1.096,1.24-2.04,2.16-2.876c0.893-0.807,1.902-1.427,3.025-1.845c1.125-0.411,2.289-0.599,3.49-0.548
		c1.207,0.051,2.35,0.31,3.416,0.814c1.063,0.482,2.004,1.189,2.824,2.083c0.898,0.994,1.535,2.104,1.904,3.337
		c0.367,1.232,0.465,2.53,0.279,3.921l4.797,0.612L395.076,399.514z M405.977,385.885c-1.652,1.866-3.307,2.883-4.98,3.034
		c-1.668,0.166-3.373-0.526-5.105-2.068l-7.973-7.057l2.408-2.717l7.539,6.674c1.057,0.938,2.059,1.405,3.002,1.405
		c0.951,0.008,1.83-0.446,2.652-1.376c0.826-0.93,1.182-1.874,1.07-2.826c-0.111-0.958-0.695-1.896-1.744-2.825l-7.543-6.667
		l2.412-2.725l7.963,7.057c1.74,1.535,2.631,3.143,2.674,4.814C408.406,382.281,407.609,384.039,405.977,385.885z M414.615,374.813
		l-13.781-10.119l5.957-8.116l2.488,1.824l-3.795,5.168l2.828,2.083l3.803-5.168l2.5,1.838l-3.791,5.16l3.453,2.545l3.795-5.176
		l2.5,1.846L414.615,374.813z M428.396,354.51l-9.16-0.367l6.799,4.202l-1.92,3.099l-14.549-8.973l2.746-4.455
		c1.092-1.766,2.25-2.876,3.479-3.337c1.232-0.461,2.533-0.267,3.91,0.584c0.998,0.62,1.672,1.448,2.01,2.486
		c0.336,1.045,0.271,2.076-0.201,3.106l9.1,0.058L428.396,354.51z M432.926,346.625l-15.229-7.77l4.58-8.974l2.746,1.405
		l-2.916,5.708l3.129,1.594l2.916-5.709l2.764,1.413l-2.912,5.715l3.816,1.946l2.916-5.716l2.768,1.413L432.926,346.625z
		 M441.172,329.442l-12.912-5.392l-1.607,3.863l-2.869-1.204l4.631-11.092l2.873,1.196l-1.615,3.849l12.912,5.392L441.172,329.442z
		 M449.006,308.079l-3.881,0.187l-2.061,6.293l3.08,2.271l-1.221,3.719l-14.225-11.503l1.301-3.972l18.305-0.944L449.006,308.079z
		 M453.248,291.667l-8.801,2.58l7.785,1.81l-0.822,3.553l-16.656-3.849l1.182-5.11c0.461-2.018,1.207-3.445,2.23-4.267
		c1.014-0.836,2.318-1.06,3.889-0.691c1.15,0.259,2.043,0.828,2.691,1.708c0.66,0.879,0.924,1.881,0.813,3.005l8.645-2.847
		L453.248,291.667z M456.693,274.297c-0.129,1.038-0.439,2.032-0.918,2.977c-0.48,0.951-1.104,1.787-1.867,2.53
		c-0.984,0.966-2.105,1.636-3.367,2.062c-1.25,0.41-2.559,0.525-3.912,0.36c-1.223-0.166-2.34-0.534-3.35-1.117
		c-1.016-0.592-1.885-1.37-2.602-2.336s-1.229-2.032-1.545-3.214c-0.307-1.183-0.391-2.372-0.23-3.561
		c0.154-1.176,0.529-2.3,1.123-3.359c0.605-1.052,1.373-1.96,2.311-2.71c0.943-0.749,1.982-1.275,3.117-1.586
		c1.129-0.31,2.303-0.382,3.51-0.23c1.215,0.159,2.332,0.526,3.355,1.125c1.02,0.598,1.889,1.361,2.598,2.32
		c0.729,0.995,1.244,2.062,1.551,3.222C456.766,271.947,456.848,273.122,456.693,274.297z"/>
	<path fill="#FFFFFF" d="M217.811,83.202c0.203-0.039,0.404-0.078,0.607-0.116c1.238-0.232,2.48-0.451,3.729-0.657
		c0.244-0.04,0.488-0.082,0.732-0.121c1.197-0.192,2.4-0.37,3.607-0.538c0.295-0.041,0.59-0.084,0.887-0.124
		c1.15-0.152,2.305-0.291,3.463-0.421c0.35-0.04,0.699-0.083,1.051-0.12c1.105-0.117,2.213-0.219,3.324-0.315
		c0.4-0.034,0.801-0.074,1.203-0.106c1.074-0.085,2.152-0.153,3.23-0.219c0.436-0.026,0.867-0.06,1.301-0.082
		c1.098-0.058,2.199-0.097,3.303-0.134c0.412-0.014,0.822-0.036,1.234-0.047c1.508-0.04,3.02-0.062,4.537-0.062
		c-12.193-0.122-24.322,1.216-36.164,3.869c0.051-0.012,0.104-0.021,0.154-0.031C215.271,83.705,216.539,83.446,217.811,83.202z"/>
	<path fill="#FFFFFF" d="M419.631,240.758c0.164,3.061,0.254,6.141,0.254,9.242c0,93.821-76.051,169.868-169.865,169.868
		c-93.816,0-169.863-76.047-169.863-169.868c0-10.261,0.906-20.3,2.65-30.061c0.104-0.577,0.223-1.149,0.332-1.725
		c0.148-0.788,0.291-1.578,0.451-2.361c-1.82,8.676-3,17.64-3.453,26.86H78.02c-0.102,2.417-0.166,4.844-0.166,7.286
		c0,94.643,77.07,171.354,172.145,171.354c95.076,0,172.152-76.711,172.152-171.354c0-2.442-0.063-4.869-0.164-7.286h-2.199
		C419.742,242.06,419.682,241.41,419.631,240.758z"/>
	<path fill="#FFFFFF" d="M341.766,107.023c0.406,0.264,0.809,0.534,1.213,0.8c0.682,0.446,1.367,0.888,2.041,1.344
		c0.018,0.011,0.033,0.021,0.051,0.033c0.406,0.279,0.807,0.563,1.213,0.842c1.717,1.184,3.414,2.392,5.086,3.635
		c-3.154-2.354-6.396-4.599-9.721-6.729c0.029,0.019,0.057,0.038,0.086,0.057C341.746,107.011,341.756,107.017,341.766,107.023z"/>
	<path fill="#FFFFFF" d="M355.275,116.675c0.031,0.027,0.064,0.053,0.098,0.08c0.174,0.138,0.346,0.279,0.518,0.418
		c-0.23-0.187-0.461-0.375-0.693-0.56c0.006,0.005,0.012,0.01,0.018,0.015C355.234,116.644,355.256,116.659,355.275,116.675z"/>
	<path fill="#FFFFFF" d="M335.221,103.027c0.738,0.43,1.475,0.865,2.207,1.305C336.695,103.894,335.961,103.456,335.221,103.027z"/>
	<path fill="#FFFFFF" d="M351.744,113.955c0.717,0.537,1.426,1.087,2.133,1.635C353.17,115.04,352.461,114.493,351.744,113.955z"/>
	<path fill="#FFFFFF" d="M332.318,101.38c0.174,0.1,0.35,0.195,0.52,0.291C332.664,101.574,332.492,101.477,332.318,101.38z"/>
	<path fill="#FFFFFF" d="M341.105,106.605c0.025,0.017,0.053,0.033,0.078,0.05c0.072,0.045,0.143,0.088,0.213,0.133
		c-0.992-0.634-1.99-1.258-2.996-1.871c0.377,0.23,0.75,0.47,1.127,0.704C340.053,105.948,340.58,106.274,341.105,106.605z"/>
	<path fill="#FFFFFF" d="M232.439,21.217C114.457,29.668,21.359,122.63,20.574,242.714h0.008
		C21.365,122.63,114.457,29.668,232.439,21.217z"/>
	<path fill="#FFFFFF" d="M89.48,194.738c0.117-0.337,0.236-0.674,0.357-1.01C89.717,194.064,89.598,194.401,89.48,194.738z"/>
	<path fill="#FFFFFF" d="M368.443,128.326c0.102,0.101,0.205,0.201,0.307,0.302C368.648,128.527,368.545,128.427,368.443,128.326z"
		/>
	<path fill="#FFFFFF" d="M88.451,197.768c0.072-0.219,0.141-0.438,0.213-0.657C88.592,197.329,88.523,197.549,88.451,197.768z"/>
	<path fill="#FFFFFF" d="M85.725,206.915c0.098-0.366,0.197-0.732,0.297-1.098C85.922,206.183,85.822,206.549,85.725,206.915z"/>
	<path fill="#FFFFFF" d="M90.693,191.381c0.088-0.233,0.178-0.464,0.266-0.696C90.871,190.917,90.781,191.147,90.693,191.381z"/>
	<path fill="#FFFFFF" d="M84.883,210.201c0.07-0.29,0.139-0.582,0.213-0.872C85.021,209.619,84.953,209.911,84.883,210.201z"/>
	<path fill="#FFFFFF" d="M362.324,122.606c-0.027-0.024-0.055-0.049-0.082-0.074C362.27,122.558,362.297,122.582,362.324,122.606z"
		/>
	<path fill="#FFFFFF" d="M371.75,131.665c-0.082-0.085-0.166-0.17-0.248-0.255C371.584,131.495,371.668,131.58,371.75,131.665z"/>
	<path fill="#FFFFFF" d="M388.262,151.732c-0.004-0.007-0.008-0.014-0.014-0.02C388.254,151.719,388.258,151.726,388.262,151.732z"
		/>
	<path fill="#FFFFFF" d="M374.643,134.749c-0.018-0.02-0.035-0.038-0.051-0.057C374.607,134.711,374.625,134.729,374.643,134.749z"
		/>
	<path fill="#FFFFFF" d="M86.699,203.411c0.064-0.224,0.133-0.445,0.199-0.668C86.832,202.966,86.764,203.188,86.699,203.411z"/>
	<path fill="#FFFFFF" d="M365.623,125.619c-0.086-0.081-0.172-0.162-0.258-0.243C365.451,125.457,365.537,125.538,365.623,125.619z"
		/>
	<path fill="#FFFFFF" d="M158.869,107.188c0.086-0.055,0.17-0.109,0.256-0.164C159.039,107.078,158.955,107.133,158.869,107.188z"/>
	<path fill="#FFFFFF" d="M148.996,114.055c0.088-0.065,0.174-0.131,0.262-0.195C149.17,113.924,149.084,113.989,148.996,114.055z"/>
	<path fill="#FFFFFF" d="M169.15,101.039c0.09-0.049,0.178-0.099,0.266-0.147C169.328,100.94,169.24,100.99,169.15,101.039z"/>
	<path fill="#FFFFFF" d="M171.924,99.538c0.023-0.012,0.045-0.022,0.066-0.034C171.969,99.516,171.947,99.526,171.924,99.538z"/>
	<path fill="#FFFFFF" d="M139.574,121.618c0.1-0.085,0.197-0.17,0.297-0.254C139.771,121.448,139.674,121.533,139.574,121.618z"/>
	<path fill="#FFFFFF" d="M130.674,129.836c0.105-0.104,0.213-0.209,0.318-0.313C130.887,129.627,130.779,129.73,130.674,129.836z"/>
	<path fill="#FFFFFF" d="M179.789,95.634c0.1-0.046,0.199-0.093,0.297-0.139C179.988,95.541,179.889,95.588,179.789,95.634z"/>
	<path fill="#FFFFFF" d="M193.59,89.933c0.166-0.06,0.332-0.118,0.498-0.178C193.922,89.814,193.756,89.873,193.59,89.933z"/>
	<path fill="#FFFFFF" d="M201.846,87.182c0.186-0.057,0.371-0.114,0.557-0.171C202.217,87.067,202.031,87.125,201.846,87.182z"/>
	<path fill="#FFFFFF" d="M204.803,86.31c0.252-0.071,0.504-0.142,0.756-0.212C205.307,86.168,205.055,86.238,204.803,86.31z"/>
	<path fill="#FFFFFF" d="M190.707,91.008c0.131-0.05,0.262-0.101,0.393-0.15C190.969,90.907,190.838,90.958,190.707,91.008z"/>
	<path fill="#FFFFFF" d="M128.602,131.919c0.031-0.031,0.061-0.063,0.092-0.094C128.662,131.856,128.633,131.888,128.602,131.919z"
		/>
	<path fill="#FFFFFF" d="M182.617,94.349c0.086-0.038,0.172-0.075,0.258-0.113C182.789,94.273,182.703,94.311,182.617,94.349z"/>
	<path fill="#FFFFFF" d="M105.715,160.992c0.135-0.215,0.27-0.431,0.404-0.645C105.984,160.562,105.85,160.777,105.715,160.992z"/>
	<path fill="#FFFFFF" d="M393.176,159.152c-0.051-0.082-0.104-0.164-0.154-0.246C393.072,158.988,393.125,159.07,393.176,159.152z"
		/>
	<path fill="#FFFFFF" d="M95.525,179.812c0.104-0.226,0.211-0.449,0.316-0.674C95.736,179.362,95.629,179.586,95.525,179.812z"/>
	<path fill="#FFFFFF" d="M395.424,162.848c-0.029-0.051-0.059-0.101-0.09-0.15C395.365,162.747,395.395,162.797,395.424,162.848z"/>
	<path fill="#FFFFFF" d="M94.09,183.011c0.133-0.304,0.266-0.606,0.4-0.908C94.355,182.404,94.223,182.707,94.09,183.011z"/>
	<path fill="#FFFFFF" d="M101.148,168.732c0.117-0.21,0.236-0.419,0.354-0.628C101.385,168.313,101.266,168.522,101.148,168.732z"/>
	<path fill="#FFFFFF" d="M390.803,155.465c-0.047-0.07-0.092-0.141-0.139-0.21C390.711,155.324,390.756,155.395,390.803,155.465z"/>
	<path fill="#FFFFFF" d="M120.295,141.048c0.082-0.098,0.164-0.197,0.248-0.295C120.459,140.851,120.377,140.95,120.295,141.048z"/>
	<path fill="#FFFFFF" d="M114.598,148.139c0.119-0.156,0.24-0.313,0.359-0.468C114.838,147.826,114.717,147.982,114.598,148.139z"/>
	<path fill="#FFFFFF" d="M122.332,138.687c0.113-0.13,0.227-0.258,0.342-0.387C122.559,138.429,122.445,138.557,122.332,138.687z"/>
	<path fill="#FFFFFF" d="M107.523,158.163c0.119-0.184,0.24-0.365,0.361-0.549C107.764,157.798,107.643,157.979,107.523,158.163z"/>
	<path fill="#FFFFFF" d="M92.967,185.638c0.039-0.095,0.078-0.191,0.117-0.286C93.045,185.446,93.006,185.543,92.967,185.638z"/>
	<path fill="#FFFFFF" d="M112.658,150.741c0.115-0.156,0.229-0.313,0.344-0.47C112.887,150.428,112.773,150.585,112.658,150.741z"/>
	<path fill="#FFFFFF" d="M99.514,171.755c0.141-0.263,0.279-0.526,0.42-0.789C99.793,171.229,99.654,171.492,99.514,171.755z"/>
	<path fill="#FFFFFF" d="M283.033,83.493c-0.131-0.026-0.266-0.049-0.396-0.074C282.768,83.444,282.902,83.467,283.033,83.493z"/>
	<path fill="#FFFFFF" d="M298.689,87.34c-0.174-0.052-0.35-0.101-0.525-0.151C298.34,87.239,298.516,87.288,298.689,87.34z"/>
	<path fill="#FFFFFF" d="M288.475,84.657c-0.115-0.026-0.23-0.056-0.348-0.082C288.244,84.602,288.359,84.631,288.475,84.657z"/>
	<path fill="#FFFFFF" d="M272.85,81.805c-0.307-0.042-0.609-0.087-0.914-0.128C272.24,81.718,272.543,81.763,272.85,81.805z"/>
	<path fill="#FFFFFF" d="M293.887,85.999c-0.305-0.081-0.609-0.161-0.914-0.239C293.277,85.838,293.582,85.918,293.887,85.999z"/>
	<path fill="#FFFFFF" d="M278.125,82.605c-0.371-0.063-0.744-0.123-1.117-0.183C277.381,82.482,277.754,82.543,278.125,82.605z"/>
	<path fill="#FFFFFF" d="M256.561,80.332c-0.473-0.021-0.943-0.046-1.416-0.063C255.617,80.286,256.088,80.311,256.561,80.332z"/>
	<path fill="#FFFFFF" d="M213.676,84.05c-0.051,0.011-0.102,0.022-0.152,0.033c-0.129,0.029-0.254,0.061-0.383,0.09
		C213.32,84.132,213.498,84.09,213.676,84.05z"/>
	<path fill="#FFFFFF" d="M261.793,80.641c-0.461-0.034-0.926-0.063-1.389-0.095C260.867,80.577,261.332,80.606,261.793,80.641z"/>
	<path fill="#FFFFFF" d="M266.797,81.074c-0.094-0.01-0.188-0.017-0.281-0.025C266.609,81.058,266.703,81.064,266.797,81.074z"/>
	<path fill="#FFFFFF" d="M328.092,99.133c-0.324-0.168-0.652-0.332-0.979-0.497C327.439,98.801,327.768,98.965,328.092,99.133z"/>
	<path fill="#FFFFFF" d="M83.695,215.372c-0.031,0.145-0.064,0.287-0.096,0.432c-0.002,0.014-0.004,0.026-0.008,0.039
		C83.625,215.686,83.66,215.529,83.695,215.372z"/>
	<polygon fill="#FFFFFF" points="332.119,101.272 332.117,101.271 332.109,101.268 	"/>
	<path fill="#FFFFFF" d="M309.051,90.774c-0.273-0.1-0.545-0.201-0.82-0.301C308.506,90.573,308.777,90.675,309.051,90.774z"/>
	<path fill="#FFFFFF" d="M333.305,101.937c-0.02-0.011-0.039-0.022-0.059-0.033c-0.006-0.003-0.01-0.006-0.016-0.009
		C333.256,101.908,333.279,101.923,333.305,101.937z"/>
	<path fill="#FFFFFF" d="M323.586,96.898c-0.285-0.136-0.566-0.274-0.852-0.408C323.02,96.624,323.301,96.763,323.586,96.898z"/>
	<path fill="#FFFFFF" d="M313.727,92.566c-0.24-0.096-0.48-0.188-0.721-0.284C313.246,92.378,313.486,92.471,313.727,92.566z"/>
	<path fill="#FFFFFF" d="M479.299,242.714h0.045C478.518,116.725,376.203,20.59,250.02,20.59
		C374.275,20.59,475.449,119.386,479.299,242.714z"/>
	<path fill="#FFFFFF" d="M250.02,20.59c-5.914,0-11.777,0.211-17.58,0.627C114.457,29.668,21.365,122.63,20.582,242.714h0.162
		C24.594,119.386,125.764,20.59,250.02,20.59z"/>
	<path fill="#FFFFFF" d="M353.877,115.59c0.439,0.342,0.885,0.678,1.32,1.023C354.76,116.269,354.318,115.931,353.877,115.59z"/>
	<path fill="#FFFFFF" d="M362.324,122.606c1.025,0.91,2.039,1.834,3.041,2.77c0.086,0.081,0.172,0.162,0.258,0.243
		c0.951,0.891,1.891,1.793,2.82,2.707c0.102,0.101,0.205,0.201,0.307,0.302c0.928,0.917,1.846,1.844,2.752,2.782
		c0.082,0.085,0.166,0.17,0.248,0.255c0.959,0.997,1.906,2.006,2.842,3.027c0.016,0.019,0.033,0.037,0.051,0.057
		c4.881,5.336,9.424,11,13.605,16.964c0.006,0.006,0.01,0.013,0.014,0.02c0.814,1.163,1.615,2.337,2.402,3.522
		c0.047,0.069,0.092,0.14,0.139,0.21c0.752,1.137,1.492,2.284,2.219,3.441c0.051,0.082,0.104,0.164,0.154,0.246
		c0.732,1.172,1.453,2.354,2.158,3.545c0.031,0.05,0.061,0.1,0.09,0.15c13.451,22.759,21.959,49.177,24.207,77.91
		c-2.682-50.005-26.99-94.257-63.74-123.585c2.164,1.733,4.279,3.521,6.352,5.359C362.27,122.558,362.297,122.582,362.324,122.606z"
		/>
	<path fill="#FFFFFF" d="M341.396,106.788c0.084,0.053,0.168,0.105,0.252,0.159C341.564,106.894,341.48,106.841,341.396,106.788z"/>
	<path fill="#FFFFFF" d="M351.369,113.677c0.125,0.094,0.25,0.185,0.375,0.278C351.619,113.861,351.494,113.771,351.369,113.677z"/>
	<path fill="#FFFFFF" d="M337.428,104.332c0.324,0.194,0.648,0.389,0.973,0.585C338.076,104.72,337.752,104.527,337.428,104.332z"/>
	<path fill="#FFFFFF" d="M84.883,210.201c0.07-0.29,0.139-0.582,0.213-0.872c0.203-0.808,0.414-1.611,0.629-2.414
		c0.098-0.366,0.197-0.732,0.297-1.098c0.221-0.805,0.445-1.607,0.678-2.406c0.064-0.224,0.133-0.445,0.199-0.668
		c0.492-1.671,1.01-3.33,1.553-4.976c0.072-0.219,0.141-0.438,0.213-0.657c0.266-0.794,0.539-1.584,0.816-2.372
		c0.117-0.337,0.236-0.674,0.357-1.01c0.279-0.785,0.564-1.569,0.855-2.348c0.088-0.233,0.178-0.464,0.266-0.696
		c0.645-1.696,1.313-3.38,2.008-5.047c0.039-0.095,0.078-0.191,0.117-0.286c0.328-0.784,0.666-1.563,1.006-2.341
		c0.133-0.304,0.266-0.606,0.4-0.908c0.34-0.767,0.684-1.531,1.035-2.291c0.104-0.226,0.211-0.449,0.316-0.674
		c1.168-2.497,2.393-4.959,3.672-7.383c0.141-0.263,0.279-0.526,0.42-0.789c0.4-0.748,0.805-1.493,1.215-2.233
		c0.117-0.21,0.236-0.419,0.354-0.628c1.35-2.411,2.754-4.782,4.213-7.112c0.135-0.215,0.27-0.431,0.404-0.645
		c0.463-0.732,0.93-1.461,1.404-2.185c0.119-0.184,0.24-0.365,0.361-0.549c1.539-2.334,3.131-4.626,4.773-6.873
		c0.115-0.156,0.229-0.313,0.344-0.47c0.527-0.716,1.059-1.426,1.596-2.133c0.119-0.156,0.24-0.313,0.359-0.468
		c1.729-2.256,3.508-4.464,5.338-6.623c0.082-0.098,0.164-0.197,0.248-0.295c0.592-0.694,1.188-1.383,1.789-2.066
		c0.113-0.13,0.227-0.258,0.342-0.387c1.926-2.179,3.902-4.307,5.928-6.381c0.031-0.031,0.061-0.063,0.092-0.094
		c0.654-0.669,1.316-1.332,1.98-1.989c0.105-0.105,0.213-0.209,0.318-0.313c2.777-2.734,5.641-5.37,8.582-7.904
		c0.1-0.085,0.197-0.17,0.297-0.254c2.965-2.541,6.008-4.979,9.125-7.31c0.088-0.065,0.174-0.131,0.262-0.195
		c3.135-2.334,6.34-4.559,9.611-6.672c0.086-0.055,0.17-0.109,0.256-0.164c3.277-2.109,6.623-4.105,10.025-5.984
		c0.09-0.049,0.178-0.099,0.266-0.147c0.834-0.458,1.67-0.909,2.508-1.354c0.023-0.012,0.045-0.022,0.066-0.034
		c2.568-1.357,5.17-2.646,7.799-3.87c0.1-0.046,0.199-0.093,0.297-0.139c0.842-0.389,1.684-0.771,2.531-1.146
		c0.086-0.038,0.172-0.075,0.258-0.113c2.586-1.142,5.197-2.218,7.832-3.228c0.131-0.05,0.262-0.101,0.393-0.15
		c0.828-0.315,1.658-0.623,2.49-0.925c0.166-0.06,0.332-0.118,0.498-0.178c2.566-0.921,5.152-1.779,7.758-2.573
		c0.186-0.057,0.371-0.114,0.557-0.171c0.799-0.239,1.6-0.473,2.4-0.701c0.252-0.071,0.504-0.142,0.756-0.212
		c2.514-0.702,5.041-1.344,7.582-1.925c0.129-0.029,0.254-0.061,0.383-0.09C148.242,98.377,97.008,150.198,83.6,215.804
		c0.031-0.145,0.064-0.287,0.096-0.432C84.064,213.637,84.461,211.913,84.883,210.201z"/>
	<path fill="#FFFFFF" d="M335.221,103.027c-0.654-0.38-1.314-0.753-1.975-1.124c0.02,0.011,0.039,0.022,0.059,0.033
		C333.945,102.296,334.584,102.659,335.221,103.027z"/>
	<path fill="#FFFFFF" d="M256.561,80.332c1.285,0.059,2.566,0.129,3.844,0.214c0.463,0.031,0.928,0.061,1.389,0.095
		c1.58,0.117,3.156,0.251,4.723,0.408c0.094,0.009,0.188,0.016,0.281,0.025c1.723,0.176,3.434,0.379,5.139,0.603
		c0.305,0.041,0.607,0.086,0.914,0.128c1.393,0.19,2.779,0.396,4.158,0.618c0.373,0.06,0.746,0.12,1.117,0.183
		c1.512,0.253,3.016,0.522,4.512,0.813c0.131,0.025,0.266,0.048,0.396,0.074c1.709,0.336,3.406,0.697,5.094,1.082
		c0.117,0.026,0.232,0.056,0.348,0.082c1.51,0.348,3.008,0.717,4.498,1.103c0.305,0.078,0.609,0.158,0.914,0.239
		c1.434,0.379,2.861,0.775,4.277,1.189c0.176,0.051,0.352,0.1,0.525,0.151c3.227,0.954,6.406,2.001,9.541,3.134
		c0.275,0.1,0.547,0.201,0.82,0.301c1.326,0.487,2.645,0.99,3.955,1.508c0.24,0.096,0.48,0.188,0.721,0.284
		c3.051,1.225,6.055,2.533,9.008,3.924c0.285,0.134,0.566,0.272,0.852,0.408c1.184,0.565,2.359,1.145,3.527,1.737
		c0.326,0.165,0.654,0.329,0.979,0.497c1.35,0.695,2.691,1.404,4.018,2.135c0.002,0.001,0.004,0.003,0.008,0.004
		C307.781,87.811,279.799,80.14,250.02,80.14c1.717,0.017,3.424,0.065,5.125,0.129C255.617,80.286,256.088,80.311,256.561,80.332z"
		/>
	<path fill="#FFFFFF" d="M332.318,101.38c-0.018-0.01-0.035-0.02-0.053-0.029c-0.049-0.027-0.1-0.052-0.148-0.079
		c0,0,0,0.001,0.002,0.001C332.186,101.31,332.252,101.344,332.318,101.38z"/>
	<path fill="#FFFFFF" d="M333.246,101.903c-0.104-0.059-0.205-0.119-0.311-0.178c-0.031-0.018-0.064-0.037-0.098-0.055
		c0.133,0.073,0.262,0.149,0.393,0.224C333.236,101.897,333.24,101.9,333.246,101.903z"/>
	<path fill="#FFFFFF" d="M83.6,215.804c0,0.004-0.002,0.008-0.002,0.011c-0.004,0.013-0.006,0.026-0.008,0.039
		c0-0.004,0.002-0.008,0.002-0.011C83.596,215.83,83.598,215.817,83.6,215.804z"/>
	<path fill="#FFFFFF" d="M213.855,84.009c-0.037,0.008-0.074,0.015-0.111,0.022c-0.074,0.017-0.148,0.035-0.221,0.052
		c0.051-0.011,0.102-0.022,0.152-0.033C213.736,84.036,213.795,84.022,213.855,84.009z"/>
	<path fill="#FFFFFF" d="M155.885,78.539c1.457,0.512,2.92,0.39,4.391-0.382c1.434-0.757,2.354-1.881,2.756-3.381
		c0.412-1.499,0.217-3.006-0.576-4.52c-0.793-1.506-1.928-2.515-3.412-3.049c-1.479-0.533-2.934-0.425-4.35,0.318
		c-1.436,0.756-2.361,1.888-2.771,3.416c-0.412,1.514-0.221,3.02,0.572,4.533C153.299,77.011,154.434,78.027,155.885,78.539z"/>
	<path fill="#FFFFFF" d="M76.725,144.546c-0.76-0.447-1.438-0.52-2.021-0.252c-0.592,0.273-1.262,1.053-1.996,2.328l-0.289,0.504
		l4.08,2.357l0.285-0.498c0.773-1.34,1.145-2.307,1.098-2.912C77.842,145.476,77.453,144.957,76.725,144.546z"/>
	<path fill="#FFFFFF" d="M325.145,61.233c0.008-0.18,0.055-0.482,0.127-0.908c0.07-0.41,0.176-0.915,0.305-1.514
		c-0.309,0.498-0.602,0.938-0.863,1.326c-0.268,0.39-0.447,0.656-0.549,0.779l-3.936,4.576l4.602,1.859L325.145,61.233z"/>
	<path fill="#FFFFFF" d="M139.996,90.101c1.658-1.133,2.609-2.336,2.852-3.611c0.24-1.27-0.191-2.725-1.313-4.361
		c-1.113-1.636-2.307-2.565-3.59-2.803c-1.268-0.246-2.738,0.201-4.393,1.333l-1.758,1.196l6.447,9.435L139.996,90.101z"/>
	<path fill="#FFFFFF" d="M66.76,172.331c1.576,0.707,3.104,0.814,4.559,0.311c1.461-0.498,2.531-1.5,3.207-3.014
		c0.66-1.484,0.693-2.94,0.084-4.367c-0.609-1.428-1.697-2.494-3.258-3.193c-1.547-0.691-3.07-0.785-4.563-0.288
		c-1.492,0.505-2.57,1.485-3.219,2.948c-0.666,1.477-0.688,2.947-0.072,4.396C64.123,170.565,65.207,171.64,66.76,172.331z"/>
	<path fill="#FFFFFF" d="M199.016,58.892l4.814-1.232l-3.369-5.118c-0.098-0.144-0.242-0.418-0.434-0.792
		c-0.184-0.39-0.398-0.858-0.645-1.42c0.037,0.59,0.064,1.123,0.084,1.592c0.021,0.469,0.025,0.786,0.014,0.951L199.016,58.892z"/>
	<path fill="#FFFFFF" d="M102.033,110.706c-0.162-0.072-0.42-0.216-0.793-0.432c-0.363-0.217-0.799-0.49-1.311-0.836
		c0.354,0.475,0.666,0.908,0.938,1.282c0.27,0.382,0.443,0.655,0.529,0.793l2.879,5.298l3.377-3.647L102.033,110.706z"/>
	<path fill="#FFFFFF" d="M291.457,60.772c1.584,0.354,3.02,0.094,4.303-0.785c1.275-0.88,2.107-2.148,2.482-3.82
		c0.371-1.658,0.162-3.164-0.623-4.534c-0.785-1.362-1.961-2.22-3.525-2.573c-1.582-0.359-3.02-0.086-4.316,0.801
		c-1.295,0.894-2.131,2.176-2.506,3.834c-0.381,1.687-0.184,3.2,0.596,4.526C288.652,59.562,289.842,60.412,291.457,60.772z"/>
	<path fill="#FFFFFF" d="M403.246,133.302c0.969,1.305,2.227,2.047,3.77,2.213s3.006-0.26,4.383-1.29
		c1.35-1.009,2.18-2.284,2.471-3.835c0.289-1.549-0.043-2.969-0.998-4.252c-0.969-1.297-2.234-2.039-3.801-2.205
		c-1.561-0.166-3.027,0.26-4.395,1.275c-1.387,1.038-2.219,2.313-2.496,3.834C401.904,130.556,402.262,131.983,403.246,133.302z"/>
	<path fill="#FFFFFF" d="M78.02,242.714c3.836-91.247,79.357-164.06,171.979-164.06c92.623,0,168.15,72.813,171.988,164.06h57.311
		h0.002C475.449,119.386,374.275,20.59,250.02,20.59S24.594,119.386,20.744,242.714l0,0H78.02z M448.383,191.251l-16.971-4.224
		l2.758,8.462l-2.926,0.959l-4.674-14.301l16.998,4.217l-2.576-7.906l2.912-0.951L448.383,191.251z M441.67,171.849l-16.604,6.717
		l-1.445-3.553l16.611-6.725L441.67,171.849z M434.977,156.69c0.959,1.953,1.291,3.604,1.014,4.952
		c-0.285,1.348-1.186,2.393-2.715,3.142c-1.102,0.534-2.209,0.664-3.322,0.383c-1.109-0.281-1.982-0.923-2.637-1.91l-5.15,8.021
		l-1.939-3.964l5.449-7.913l-7.518,3.676l-1.684-3.438l16.088-7.878L434.977,156.69z M423.398,135.947l6.479,10.812l-2.789,1.672
		l-2.256-3.755l-12.57,7.539l-1.975-3.294l12.57-7.539l-2.256-3.756L423.398,135.947z M409.318,120.321
		c1.232,0.195,2.404,0.627,3.492,1.297c1.1,0.656,2.021,1.492,2.771,2.509c0.742,0.995,1.279,2.112,1.6,3.345
		c0.314,1.239,0.396,2.472,0.234,3.719c-0.17,1.254-0.559,2.407-1.193,3.467c-0.619,1.053-1.449,1.968-2.479,2.731
		c-1.027,0.765-2.145,1.305-3.342,1.593c-1.199,0.303-2.414,0.354-3.643,0.145c-1.271-0.209-2.443-0.642-3.518-1.297
		c-1.078-0.656-1.99-1.479-2.734-2.48c-0.652-0.879-1.141-1.845-1.475-2.912c-0.328-1.059-0.473-2.141-0.436-3.258
		c0.047-1.448,0.393-2.774,1.033-4c0.643-1.225,1.539-2.263,2.689-3.135c1.037-0.764,2.146-1.297,3.336-1.593
		C406.846,120.163,408.064,120.112,409.318,120.321z M395.992,101.978l-5.223,9.795c-0.107,0.203-0.289,0.49-0.529,0.837
		c-0.252,0.36-0.545,0.757-0.891,1.182c0.447-0.331,0.861-0.627,1.229-0.872c0.371-0.238,0.652-0.403,0.852-0.49l10.021-4.75
		l2.738,2.848l-11.027,14.379l-2.512-2.616l6.887-8.433c0.504-0.62,0.898-1.089,1.168-1.392c0.273-0.303,0.541-0.577,0.793-0.821
		c0.133-0.13,0.238-0.224,0.303-0.296c0.076-0.058,0.141-0.108,0.195-0.151c-0.588,0.396-1.111,0.729-1.547,1.002
		c-0.447,0.273-0.797,0.469-1.049,0.584l-10.887,5.197l-1.492-1.558l5.68-10.624c0.057-0.101,0.219-0.354,0.486-0.764
		c0.273-0.411,0.674-1.01,1.199-1.787l-0.377,0.367c-0.602,0.569-1.385,1.225-2.361,1.961l-0.039,0.021l-8.697,6.544l-2.514-2.624
		l14.811-10.436L395.992,101.978z M373.143,85.04c1.244-0.115,2.48,0.015,3.705,0.389c1.227,0.375,2.324,0.959,3.297,1.76
		c0.975,0.777,1.764,1.729,2.373,2.847c0.611,1.117,1.002,2.292,1.148,3.554c0.148,1.254,0.047,2.465-0.299,3.646
		c-0.35,1.182-0.922,2.271-1.732,3.266c-0.813,0.979-1.76,1.779-2.84,2.363c-1.094,0.584-2.264,0.93-3.508,1.038
		c-1.283,0.108-2.521-0.028-3.729-0.403c-1.201-0.361-2.289-0.944-3.258-1.723c-0.848-0.691-1.561-1.514-2.145-2.458
		c-0.58-0.951-0.988-1.968-1.23-3.056c-0.309-1.406-0.303-2.789,0.023-4.131c0.32-1.348,0.932-2.58,1.84-3.697
		c0.813-0.994,1.76-1.787,2.834-2.363C370.699,85.487,371.875,85.148,373.143,85.04z M358.09,71.901l10.527,6.94l-1.799,2.718
		l-3.654-2.415l-8.068,12.238l-3.211-2.112l8.072-12.238l-3.654-2.414L358.09,71.901z M334.283,71.497l5.223-9.846l3.365,1.78
		l-4.947,9.319c-0.691,1.305-0.924,2.443-0.695,3.402c0.223,0.966,0.912,1.759,2.061,2.363c1.146,0.613,2.199,0.743,3.135,0.391
		c0.945-0.354,1.764-1.176,2.455-2.466l4.941-9.319l3.357,1.787l-5.221,9.839c-1.143,2.155-2.559,3.452-4.254,3.921
		c-1.693,0.454-3.672,0.079-5.953-1.132c-2.309-1.232-3.754-2.667-4.324-4.331C332.857,75.556,333.141,73.646,334.283,71.497z
		 M324.736,55.345l4.063,1.637l-0.303,19.201l-4.037-1.629l0.072-4.08l-6.432-2.595l-2.58,3.063l-3.814-1.543L324.736,55.345z
		 M283.43,52.829c0.281-1.261,0.775-2.385,1.488-3.387c0.711-0.995,1.605-1.824,2.693-2.48c1.066-0.655,2.23-1.088,3.492-1.297
		c1.264-0.209,2.508-0.18,3.732,0.094c1.223,0.281,2.354,0.785,3.395,1.514c1.047,0.729,1.914,1.614,2.605,2.667
		c0.689,1.06,1.141,2.19,1.35,3.401c0.219,1.211,0.184,2.437-0.102,3.691c-0.281,1.246-0.779,2.378-1.496,3.387
		c-0.717,1.01-1.607,1.838-2.674,2.486c-1.1,0.656-2.27,1.096-3.514,1.298c-1.246,0.209-2.477,0.173-3.693-0.108
		c-1.064-0.23-2.064-0.648-3.01-1.246c-0.939-0.592-1.758-1.319-2.461-2.185c-0.898-1.124-1.504-2.364-1.82-3.712
		C283.109,55.604,283.113,54.235,283.43,52.829z M268.277,41.882l12.508,1.535l-0.396,3.229l-4.354-0.533l-1.779,14.552
		l-3.813-0.468l1.783-14.545l-4.35-0.534L268.277,41.882z M245.57,40.987l3.979,0.094l7.697,10.596
		c0.227,0.303,0.471,0.713,0.727,1.254c0.264,0.541,0.531,1.175,0.809,1.91c-0.084-0.533-0.137-1.053-0.162-1.586
		c-0.029-0.52-0.033-1.175-0.016-1.953l0.213-10.025l3.662,0.086l-0.389,17.903l-3.756-0.079l-7.914-10.789
		c-0.219-0.311-0.461-0.721-0.725-1.262c-0.256-0.541-0.529-1.182-0.811-1.932c0.076,0.504,0.133,1.037,0.162,1.564
		c0.029,0.525,0.037,1.182,0.014,1.981l-0.219,10.228l-3.662-0.072L245.57,40.987z M238.398,41.362l0.26,3.215l-6.697,0.547
		l0.297,3.67l6.699-0.541l0.26,3.243l-6.697,0.54l0.365,4.477l6.688-0.541l0.271,3.236l-10.518,0.865l-1.447-17.86L238.398,41.362z
		 M216.4,43.827l2.342,14.466l6.037-0.974l0.521,3.208l-9.82,1.585l-2.861-17.68L216.4,43.827z M196.654,48.036l4.25-1.074
		l11.104,15.662l-4.221,1.067l-2.35-3.337l-6.721,1.723l-0.273,3.985l-3.99,1.009L196.654,48.036z M187.98,50.444l1.066,3.084
		l-4.141,1.428l4.779,13.859l-3.633,1.254l-4.779-13.859l-4.141,1.427l-1.063-3.077L187.98,50.444z M148.396,70.128
		c0.387-1.189,0.988-2.277,1.82-3.251c0.824-0.979,1.799-1.759,2.908-2.343c1.105-0.584,2.291-0.937,3.561-1.052
		c1.266-0.115,2.504,0,3.709,0.346c1.207,0.36,2.291,0.937,3.236,1.723c0.951,0.778,1.719,1.737,2.309,2.868
		c0.596,1.139,0.951,2.321,1.061,3.547c0.107,1.24-0.037,2.45-0.43,3.625c-0.414,1.226-1.02,2.321-1.834,3.279
		c-0.818,0.959-1.773,1.73-2.883,2.314c-0.967,0.497-2,0.828-3.1,0.986c-1.1,0.159-2.197,0.138-3.293-0.064
		c-1.41-0.273-2.674-0.821-3.789-1.65c-1.109-0.828-1.996-1.874-2.662-3.143c-0.598-1.152-0.955-2.328-1.061-3.546
		C147.846,72.55,147.99,71.339,148.396,70.128z M130.82,78.575c1.598-1.088,2.928-1.831,3.994-2.234
		c1.07-0.404,2.125-0.584,3.174-0.533c1.355,0.057,2.604,0.432,3.756,1.131c1.16,0.692,2.174,1.694,3.057,2.984
		c0.9,1.318,1.459,2.638,1.68,3.979c0.215,1.334,0.1,2.639-0.357,3.921c-0.35,0.944-0.854,1.81-1.539,2.587
		c-0.678,0.771-1.809,1.701-3.402,2.79l-1.125,0.765l-3.164,2.162l-10.098-14.798L130.82,78.575z M110.971,94.366l12.82,2.696
		c0.359,0.079,0.82,0.224,1.375,0.446c0.563,0.23,1.189,0.52,1.885,0.873c-0.414-0.34-0.811-0.692-1.182-1.061
		c-0.375-0.367-0.818-0.843-1.322-1.441l-6.559-7.574l2.76-2.394l11.727,13.544l-2.844,2.457l-13.109-2.703
		c-0.363-0.072-0.826-0.216-1.381-0.447c-0.551-0.23-1.182-0.533-1.895-0.886c0.402,0.324,0.793,0.677,1.166,1.052
		c0.373,0.368,0.826,0.858,1.346,1.457l6.695,7.74l-2.764,2.393l-11.727-13.55L110.971,94.366z M99.359,105.784l17.846,7.084
		l-2.957,3.201l-3.781-1.514l-4.711,5.088l1.947,3.503l-2.793,3.021l-8.523-17.169L99.359,105.784z M80.584,128.732l10.541,3.452
		c0.227,0.065,0.533,0.195,0.92,0.375c0.398,0.188,0.84,0.404,1.318,0.67c-0.404-0.381-0.76-0.734-1.07-1.059
		c-0.299-0.324-0.508-0.57-0.635-0.75l-6.41-9.053l2.334-3.193l16.07,8.375l-2.152,2.934l-9.488-5.326
		c-0.699-0.396-1.229-0.699-1.57-0.915c-0.354-0.216-0.672-0.425-0.953-0.627c-0.146-0.115-0.258-0.194-0.334-0.26
		c-0.072-0.058-0.137-0.115-0.195-0.158c0.498,0.512,0.916,0.958,1.266,1.354c0.346,0.39,0.594,0.699,0.75,0.923l7.006,9.824
		l-1.277,1.744l-11.445-3.763c-0.107-0.035-0.381-0.151-0.836-0.346c-0.453-0.195-1.109-0.49-1.967-0.879l0.422,0.316
		c0.674,0.49,1.447,1.146,2.342,1.99l0.029,0.028l7.941,7.438l-2.143,2.926l-12.838-12.786L80.584,128.732z M70.713,144.222
		c1.092-1.881,2.277-3.085,3.555-3.597c1.275-0.512,2.641-0.353,4.111,0.505c1.07,0.619,1.791,1.463,2.174,2.544
		c0.377,1.081,0.342,2.169-0.119,3.258l9.527-0.188l-2.213,3.813l-9.6-0.115l7.236,4.194l-1.918,3.315l-15.5-8.988L70.713,144.222z
		 M60.486,163.351c0.508-1.139,1.225-2.148,2.141-3.027c0.922-0.879,1.967-1.557,3.131-2.032c1.176-0.462,2.379-0.678,3.607-0.649
		c1.227,0.029,2.426,0.311,3.59,0.83c1.172,0.518,2.18,1.232,3.027,2.133c0.854,0.908,1.484,1.939,1.906,3.113
		c0.436,1.211,0.627,2.451,0.584,3.705c-0.047,1.262-0.316,2.457-0.832,3.597c-0.443,1.002-1.049,1.896-1.82,2.702
		c-0.764,0.808-1.646,1.471-2.631,1.976c-1.271,0.67-2.613,1.017-3.994,1.052c-1.387,0.043-2.73-0.237-4.043-0.821
		c-1.17-0.519-2.184-1.232-3.02-2.126c-0.84-0.895-1.471-1.932-1.906-3.129c-0.43-1.174-0.619-2.406-0.576-3.683
		C59.693,165.708,59.971,164.497,60.486,163.351z M55.102,177.535l3.064,1.009l-2.105,6.379l3.496,1.16l2.107-6.379l3.088,1.017
		l-2.107,6.379l7.352,2.443l-1.203,3.632l-17.006-5.629L55.102,177.535z"/>
	<path fill="#FFFFFF" d="M429.449,161.613c0.521,0.296,1.16,0.267,1.916-0.108c0.791-0.381,1.232-0.9,1.338-1.542
		c0.098-0.642-0.176-1.629-0.828-2.955l-0.25-0.519l-4.234,2.075l0.25,0.513C428.328,160.468,428.922,161.317,429.449,161.613z"/>
	<path fill="#FFFFFF" d="M370.451,99.124c1.266,1.023,2.666,1.42,4.199,1.211c1.539-0.217,2.842-0.995,3.924-2.328
		c1.07-1.313,1.553-2.761,1.459-4.332c-0.104-1.571-0.771-2.861-2.01-3.871c-1.262-1.023-2.672-1.426-4.234-1.203
		c-1.551,0.224-2.865,0.994-3.939,2.32c-1.092,1.349-1.59,2.783-1.48,4.325C368.473,96.788,369.164,98.079,370.451,99.124z"/>
	<path fill="#FFFFFF" d="M249.998,78.654c-92.621,0-168.143,72.813-171.979,164.06h2.117c0.453-9.221,1.633-18.185,3.453-26.86
		c0.002-0.013,0.004-0.026,0.008-0.039c0-0.003,0.002-0.007,0.002-0.011c13.408-65.605,64.643-117.427,129.924-131.721
		c0.072-0.017,0.146-0.035,0.221-0.052c0.037-0.008,0.074-0.015,0.111-0.022c11.842-2.653,23.971-3.991,36.164-3.869
		c29.779,0,57.762,7.671,82.098,21.132c0.049,0.027,0.1,0.052,0.148,0.079c0.018,0.01,0.035,0.02,0.053,0.029
		c0.174,0.097,0.346,0.194,0.52,0.291c0.033,0.018,0.066,0.037,0.098,0.055c0.105,0.059,0.207,0.119,0.311,0.178
		c0.66,0.371,1.32,0.744,1.975,1.124c0.74,0.429,1.475,0.866,2.207,1.305c0.324,0.195,0.648,0.388,0.973,0.585
		c1.006,0.613,2.004,1.237,2.996,1.871c0.084,0.053,0.168,0.105,0.252,0.159c3.324,2.131,6.566,4.375,9.721,6.729
		c0.125,0.094,0.25,0.185,0.375,0.278c0.717,0.538,1.426,1.085,2.133,1.635c0.441,0.341,0.883,0.679,1.32,1.023
		c0.232,0.185,0.463,0.373,0.693,0.56c36.75,29.328,61.059,73.58,63.74,123.585c0.051,0.652,0.111,1.302,0.156,1.956h2.199
		C418.148,151.467,342.621,78.654,249.998,78.654z"/>
</g>
</svg>
